<svg width="91" height="40" viewBox="0 0 91 40" fill="none" xmlns="http://www.w3.org/2000/svg">
<g clip-path="url(#clip0)">
<path d="M72.5221 39.8658C65.497 40.5508 59.673 38.9018 54.9666 35.1544C54.5602 34.8319 54.1973 34.2919 54.2409 33.8533C54.3352 32.7661 55.8883 32.3131 56.9914 33.0089C58.0945 33.7047 59.0489 34.5021 60.1919 35.129C66.7235 38.7097 76.0637 38.6119 82.3014 34.2339C85.052 32.3058 86.7683 31.0265 88.55 27.6161C88.7931 27.1522 89.0471 26.6956 89.312 26.2426C89.6314 25.6989 89.889 25.3691 90.5131 25.409C90.5131 25.409 91.257 25.467 90.9159 26.4963C88.6298 33.3097 81.4814 39.054 72.5294 39.884" fill="#FBB040"/>
<path d="M46.8098 26.366C46.8098 28.1781 46.8098 29.9213 46.8098 31.6537C46.7844 33.5491 45.8772 34.5276 44.1971 34.5276C43.8252 34.5304 43.4566 34.4577 43.1136 34.314C42.7707 34.1702 42.4605 33.9584 42.202 33.6914C41.9434 33.4243 41.7419 33.1076 41.6095 32.7605C41.4772 32.4133 41.4168 32.0429 41.432 31.6718C41.3994 24.8185 41.3812 17.9615 41.432 11.1046C41.432 8.81776 43.4496 7.76675 45.5579 8.68366C46.2045 8.94494 46.9204 8.98069 47.5899 8.78514C53.628 6.79909 59.8984 10.9343 60.0762 17.2766C60.2286 22.6222 55.4533 26.8371 51.2803 26.6124L46.8098 26.366ZM54.43 17.4469C54.43 15.1927 52.8987 13.6162 50.736 13.627C48.7438 13.627 46.8134 15.4609 46.8932 17.4505C46.9948 19.8969 48.7076 21.3864 50.794 21.2523C53.0874 21.111 54.4227 19.8026 54.4227 17.4469" fill="#4272B8"/>
<path d="M26.4889 26.3948C26.4889 28.0945 26.4889 29.7181 26.4889 31.3418C26.4671 33.2735 25.4003 34.5129 23.7347 34.5274C21.9603 34.5274 21.1003 33.5235 21.0967 31.3563C21.0967 24.7095 21.0967 18.0652 21.0967 11.4233C21.0967 8.79942 22.9691 7.69404 25.3422 8.78492C25.9511 8.99506 26.613 8.99506 27.2219 8.78492C32.5524 7.10693 37.9555 10.0316 39.3199 15.3845C40.746 20.9694 36.417 26.6195 30.6873 26.6195C29.3809 26.6195 28.0746 26.4926 26.4925 26.4093L26.4889 26.3948ZM30.3317 21.2231C32.5633 21.2231 34.0946 19.7009 34.0982 17.4974C34.0833 16.4929 33.684 15.5321 32.9822 14.8123C32.2805 14.0926 31.3295 13.6684 30.3244 13.6268C29.8106 13.6271 29.3021 13.7303 28.829 13.9304C28.3559 14.1306 27.9279 14.4235 27.5702 14.7919C27.2125 15.1602 26.9325 15.5966 26.7468 16.075C26.5611 16.5535 26.4734 17.0643 26.4889 17.5772C26.5179 19.7517 28.071 21.2267 30.328 21.2231" fill="#4272B8"/>
<path d="M87.7014 17.6027C87.7014 19.6613 87.7268 21.7162 87.7014 23.7638C87.6651 26 86.025 27.2575 83.9929 26.4131C82.9043 25.9528 82.0189 26.1304 80.9738 26.3587C77.1238 27.1959 73.7165 26.4059 71.1764 23.2166C68.8432 20.2629 68.5275 16.8888 70.1241 13.5509C71.7824 10.0935 74.7507 8.33573 78.6188 8.24875C79.1441 8.25935 79.6663 8.32988 80.1755 8.45895C81.627 8.76701 82.9116 9.34687 84.4973 8.40459C85.829 7.61452 87.6543 9.29251 87.6905 11.1155C87.7377 13.29 87.6905 15.4391 87.6905 17.6027H87.7014ZM78.3975 21.2269C80.8214 21.5277 82.2003 19.4148 82.2838 17.6027C82.3745 15.537 80.4695 13.6161 78.412 13.6343C76.2892 13.6343 74.6962 15.2905 74.6926 17.4831C74.6926 19.7845 76.1078 21.2197 78.3975 21.2305" fill="#4272B8"/>
<path d="M18.564 17.5012C18.564 19.6105 18.5894 21.7198 18.564 23.8254C18.5059 26.0579 16.9419 27.0582 14.7829 26.4566C13.8532 26.2324 12.8855 26.2164 11.9489 26.4094C8.08796 27.1343 4.64797 26.4566 2.10427 23.2963C-0.243485 20.3788 -0.628125 17.0337 0.957608 13.656C2.63043 10.1224 5.60232 8.33569 9.54669 8.25233C10.1781 8.25979 10.8052 8.35868 11.4082 8.54589C12.7145 8.90831 13.8757 9.19824 15.2727 8.44441C16.6698 7.69059 18.5204 9.24536 18.5386 11.0176C18.5785 13.1921 18.5386 15.3412 18.5386 17.5012H18.564ZM9.29631 21.2196C11.5606 21.2196 13.1355 19.7482 13.1645 17.5955C13.1603 16.5629 12.7552 15.5722 12.0343 14.832C11.3135 14.0918 10.3333 13.6598 9.29994 13.627C8.79969 13.6316 8.30536 13.7356 7.8457 13.9328C7.38604 14.13 6.97022 14.4165 6.62243 14.7757C6.27464 15.1348 6.00183 15.5595 5.81985 16.0249C5.63787 16.4903 5.55035 16.9872 5.5624 17.4867C5.5624 19.7228 7.0429 21.216 9.29631 21.2196Z" fill="#4272B8"/>
<path d="M67.4057 13.2862C67.4057 16.3776 67.4239 19.4691 67.4057 22.5605C67.3876 25.0249 66.3171 26.5688 64.6516 26.6123C62.986 26.6558 61.7486 25.2315 61.7305 22.7743C61.6628 16.4562 61.6628 10.1392 61.7305 3.8235C61.7559 1.47504 62.9896 0 64.5609 0C66.201 0 67.3549 1.56564 67.3912 4.01196C67.4384 7.09976 67.3912 10.1948 67.3912 13.2862" fill="#4272B8"/>
</g>
<defs>
<clipPath id="clip0">
<rect width="91" height="40" fill="white"/>
</clipPath>
</defs>
</svg>
