<svg id="svg" version="1.1" xmlns="http://www.w3.org/2000/svg" xmlns:xlink="http://www.w3.org/1999/xlink" width="400" height="400" viewBox="0, 0, 400,400"><g id="svgg"><path id="path0" d="M1.206 0.300 C 1.210 0.465,30.912 30.293,67.212 66.584 C 103.511 102.876,133.148 132.756,133.072 132.984 C 132.979 133.262,126.681 133.434,114.091 133.504 L 95.249 133.608 47.845 86.204 C 21.773 60.132,0.342 38.800,0.221 38.800 C 0.099 38.800,0.000 42.850,0.000 47.800 C 0.000 53.761,0.140 56.800,0.416 56.800 C 1.250 56.800,76.482 132.409,76.250 133.014 C 76.055 133.523,71.026 133.600,38.013 133.600 L 0.000 133.600 0.000 146.600 L 0.000 159.600 79.800 159.600 L 159.600 159.600 159.600 79.800 L 159.600 0.000 146.602 -0.000 L 133.604 -0.000 133.502 38.100 C 133.419 69.054,133.302 76.200,132.880 76.200 C 132.327 76.200,56.800 0.875,56.800 0.324 C 56.800 0.146,44.290 0.000,29.000 0.000 C 13.710 0.000,1.203 0.135,1.206 0.300 M240.400 79.800 L 240.400 159.600 320.200 159.600 L 400.000 159.600 400.000 146.602 L 400.000 133.604 361.933 133.502 C 333.725 133.426,323.827 133.281,323.714 132.941 C 323.551 132.454,398.972 56.800,399.620 56.800 C 399.856 56.800,400.000 46.369,400.000 29.200 C 400.000 8.657,399.882 1.600,399.540 1.600 C 399.287 1.600,369.470 31.210,333.282 67.400 C 297.093 103.590,267.349 133.200,267.185 133.200 C 266.487 133.200,266.400 131.035,266.400 113.585 L 266.400 95.235 313.800 47.840 C 339.870 21.772,361.200 0.345,361.200 0.222 C 361.200 0.100,357.150 0.000,352.200 0.000 C 346.817 0.000,343.200 0.152,343.200 0.378 C 343.200 1.151,267.517 76.454,266.957 76.239 C 266.486 76.058,266.400 70.122,266.400 38.013 L 266.400 0.000 253.400 0.000 L 240.400 0.000 240.400 79.800 M0.000 253.400 L 0.000 266.400 38.013 266.400 C 70.122 266.400,76.058 266.486,76.239 266.957 C 76.454 267.517,1.151 343.200,0.378 343.200 C 0.144 343.200,0.000 353.815,0.000 371.000 C 0.000 386.290,0.135 398.800,0.300 398.800 C 0.464 398.800,30.348 369.055,66.708 332.700 C 119.120 280.296,132.897 266.724,133.203 267.200 C 133.435 267.562,133.590 275.147,133.594 286.322 L 133.600 304.845 86.200 352.240 C 60.130 378.307,38.800 399.717,38.800 399.817 C 38.800 399.918,42.850 400.000,47.800 400.000 C 53.265 400.000,56.800 399.850,56.800 399.617 C 56.800 398.971,132.459 323.553,132.945 323.715 C 133.280 323.827,133.427 333.905,133.502 361.933 L 133.604 400.000 146.602 400.000 L 159.600 400.000 159.600 320.200 L 159.600 240.400 79.800 240.400 L 0.000 240.400 0.000 253.400 M240.400 320.200 L 240.400 400.000 253.400 400.000 L 266.400 400.000 266.400 361.987 C 266.400 329.080,266.478 323.945,266.982 323.751 C 267.586 323.520,343.200 398.750,343.200 399.581 C 343.200 399.869,351.911 400.000,371.000 400.000 C 386.290 400.000,398.797 399.865,398.794 399.700 C 398.791 399.535,369.091 369.710,332.794 333.422 C 296.497 297.134,266.800 267.318,266.800 267.165 C 266.800 266.489,269.087 266.400,286.455 266.400 L 304.845 266.400 352.240 313.800 C 378.307 339.870,399.717 361.200,399.817 361.200 C 400.240 361.200,399.989 343.263,399.565 343.122 C 398.228 342.676,323.651 267.420,324.059 266.929 C 324.417 266.497,331.440 266.400,362.249 266.400 L 400.000 266.400 400.000 253.400 L 400.000 240.400 320.200 240.400 L 240.400 240.400 240.400 320.200 " stroke="none" fill="#fbfbfb" fill-rule="evenodd"></path><path id="path1" d="M57.600 0.344 C 57.600 0.837,132.748 75.918,132.995 75.672 C 133.108 75.559,133.200 58.487,133.200 37.733 L 133.200 0.000 95.400 0.000 C 74.550 0.000,57.600 0.154,57.600 0.344 M266.800 37.733 C 266.800 58.487,266.902 75.568,267.026 75.693 C 267.298 75.965,342.400 0.925,342.400 0.381 C 342.400 0.142,328.279 0.000,304.600 0.000 L 266.800 0.000 266.800 37.733 M0.000 95.400 L 0.000 133.200 37.733 133.200 C 58.487 133.200,75.576 133.090,75.711 132.956 C 76.008 132.659,1.015 57.600,0.421 57.600 C 0.129 57.600,0.000 69.197,0.000 95.400 M361.542 95.216 C 340.940 115.860,324.185 132.852,324.309 132.976 C 324.432 133.099,341.513 133.200,362.267 133.200 L 400.000 133.200 400.000 95.400 C 400.000 65.405,399.897 57.608,399.500 57.640 C 399.225 57.662,382.144 74.571,361.542 95.216 M0.000 304.600 C 0.000 328.181,0.143 342.400,0.380 342.400 C 0.921 342.400,75.962 267.295,75.691 267.024 C 75.568 266.901,58.487 266.800,37.733 266.800 L 0.000 266.800 0.000 304.600 M324.400 267.141 C 324.400 267.586,399.214 342.400,399.659 342.400 C 399.847 342.400,400.000 325.390,400.000 304.600 L 400.000 266.800 362.200 266.800 C 341.410 266.800,324.400 266.953,324.400 267.141 M95.100 361.691 C 74.475 382.343,57.600 399.411,57.600 399.620 C 57.600 399.857,71.813 400.000,95.400 400.000 L 133.200 400.000 133.200 362.224 C 133.200 341.447,133.065 324.378,132.900 324.294 C 132.735 324.210,115.725 341.039,95.100 361.691 M267.042 324.291 C 266.909 324.424,266.800 341.513,266.800 362.267 L 266.800 400.000 304.800 400.000 C 325.700 400.000,342.800 399.901,342.800 399.780 C 342.800 399.321,267.272 324.061,267.042 324.291 " stroke="none" fill="#04247c" fill-rule="evenodd"></path><path id="path2" d="M160.400 80.200 L 160.400 160.400 80.200 160.400 L 0.000 160.400 0.000 199.999 L 0.000 239.598 80.100 239.699 L 160.200 239.800 160.301 319.900 L 160.402 400.000 200.000 400.000 L 239.598 400.000 239.699 319.900 L 239.800 239.800 319.900 239.699 L 400.000 239.598 400.000 200.000 L 400.000 160.402 319.900 160.301 L 239.800 160.200 239.699 80.100 L 239.598 0.000 199.999 0.000 L 160.400 0.000 160.400 80.200 M315.100 48.167 L 267.200 96.204 267.200 113.942 L 267.200 131.680 332.800 66.080 C 368.880 30.001,398.400 0.373,398.400 0.240 C 398.400 0.108,390.435 0.030,380.700 0.066 L 363.000 0.131 315.100 48.167 M-0.000 19.104 L -0.000 36.607 48.100 84.703 L 96.200 132.799 113.919 132.800 L 131.638 132.800 66.039 67.200 C 29.959 31.120,0.341 1.600,0.220 1.600 C 0.099 1.600,-0.000 9.477,-0.000 19.104 M333.959 332.800 C 370.039 368.880,399.658 398.400,399.779 398.400 C 399.901 398.400,400.000 390.515,400.000 380.878 L 400.000 363.356 351.918 315.278 L 303.837 267.200 286.098 267.200 L 268.359 267.200 333.959 332.800 M67.100 334.098 C 31.075 370.123,1.600 399.688,1.600 399.798 C 1.600 399.909,9.565 399.970,19.300 399.934 L 37.000 399.869 84.904 351.828 L 132.808 303.788 132.704 286.194 L 132.600 268.600 67.100 334.098 " stroke="none" fill="#cc142c" fill-rule="evenodd"></path><path id="path3" d="M0.000 0.600 C 0.000 0.930,0.206 1.200,0.457 1.200 C 1.101 1.200,132.453 132.614,132.130 132.936 C 131.985 133.081,123.753 133.200,113.837 133.200 L 95.808 133.200 48.402 85.800 C 22.328 59.730,0.780 38.400,0.516 38.400 C 0.253 38.400,21.460 59.822,47.644 86.004 L 95.251 133.608 114.125 133.504 C 129.275 133.421,133.000 133.298,133.000 132.881 C 133.000 132.331,0.871 -0.000,0.322 -0.000 C 0.145 -0.000,0.000 0.270,0.000 0.600 M56.800 0.324 C 56.800 0.875,132.327 76.200,132.880 76.200 C 133.303 76.200,133.401 69.086,133.403 38.000 L 133.406 -0.200 133.304 37.400 C 133.248 58.080,133.123 75.211,133.026 75.468 C 132.849 75.938,57.600 0.990,57.600 0.344 C 57.600 0.155,57.420 0.000,57.200 0.000 C 56.980 0.000,56.800 0.146,56.800 0.324 M159.600 79.800 L 159.600 159.600 79.800 159.600 C 26.867 159.600,0.000 159.735,0.000 160.000 C 0.000 160.626,159.293 160.547,159.920 159.920 C 160.547 159.293,160.626 0.000,160.000 0.000 C 159.735 0.000,159.600 26.867,159.600 79.800 M240.099 79.857 C 240.009 152.548,240.058 159.937,240.633 160.157 C 241.767 160.593,400.000 160.436,400.000 160.000 C 400.000 159.735,373.134 159.600,320.201 159.600 L 240.402 159.600 240.300 79.700 L 240.198 -0.200 240.099 79.857 M266.498 37.913 C 266.415 70.172,266.486 76.058,266.957 76.239 C 267.517 76.454,343.200 1.151,343.200 0.378 C 343.200 0.170,343.020 0.000,342.800 0.000 C 342.580 0.000,342.400 0.171,342.400 0.381 C 342.400 1.080,267.177 76.007,266.986 75.498 C 266.883 75.224,266.753 58.080,266.697 37.400 L 266.596 -0.200 266.498 37.913 M313.900 47.658 L 266.400 95.236 266.400 113.585 C 266.400 131.035,266.487 133.200,267.185 133.200 C 267.349 133.200,297.093 103.590,333.282 67.400 C 369.470 31.210,399.287 1.600,399.540 1.600 C 399.793 1.600,400.000 1.240,400.000 0.800 C 400.000 0.360,399.954 0.000,399.897 0.000 C 399.841 0.000,370.017 29.780,333.622 66.177 C 297.227 102.574,267.303 132.264,267.125 132.153 C 266.946 132.043,266.800 123.818,266.800 113.876 L 266.800 95.799 314.400 48.200 C 358.144 4.457,362.601 -0.080,361.700 0.040 C 361.535 0.062,340.025 21.490,313.900 47.658 M0.000 57.200 C 0.000 57.420,0.190 57.600,0.421 57.600 C 1.181 57.600,76.076 132.796,75.524 133.004 C 75.236 133.113,58.080 133.247,37.400 133.303 L -0.200 133.404 37.913 133.502 C 71.076 133.587,76.054 133.524,76.250 133.014 C 76.482 132.409,1.250 56.800,0.416 56.800 C 0.187 56.800,0.000 56.980,0.000 57.200 M361.400 94.641 C 340.588 115.453,323.629 132.688,323.714 132.941 C 323.827 133.282,333.673 133.401,362.033 133.403 L 400.200 133.406 362.600 133.304 C 341.920 133.248,324.777 133.118,324.504 133.015 C 323.998 132.824,398.925 57.600,399.620 57.600 C 399.829 57.600,400.000 57.420,400.000 57.200 C 400.000 56.138,396.746 59.294,361.400 94.641 M79.700 240.300 L 159.600 240.402 159.600 320.201 C 159.600 373.134,159.735 400.000,160.000 400.000 C 160.436 400.000,160.593 241.767,160.157 240.633 C 159.937 240.058,152.548 240.009,79.857 240.099 L -0.200 240.198 79.700 240.300 M240.099 320.100 L 240.198 400.200 240.300 320.301 L 240.402 240.402 320.301 240.300 L 400.200 240.198 320.100 240.099 L 240.000 240.000 240.099 320.100 M37.400 266.697 C 58.080 266.753,75.223 266.882,75.496 266.985 C 76.002 267.176,1.075 342.400,0.380 342.400 C 0.171 342.400,0.000 342.580,0.000 342.800 C 0.000 343.020,0.170 343.200,0.378 343.200 C 1.151 343.200,76.454 267.517,76.239 266.957 C 76.058 266.486,70.172 266.415,37.913 266.498 L -0.200 266.596 37.400 266.697 M267.300 266.665 C 267.025 266.776,266.800 266.996,266.800 267.154 C 266.800 267.551,399.282 400.000,399.679 400.000 C 400.277 400.000,400.025 399.745,333.787 333.508 C 284.899 284.620,267.743 267.231,268.220 267.048 C 268.575 266.912,276.842 266.800,286.591 266.800 L 304.317 266.800 351.972 314.454 C 378.181 340.663,399.729 362.004,399.856 361.878 C 399.982 361.751,378.656 340.217,352.464 314.024 L 304.843 266.400 286.322 266.432 C 276.135 266.449,267.575 266.554,267.300 266.665 M324.059 266.929 C 323.651 267.420,398.228 342.676,399.565 343.122 C 399.804 343.201,400.000 343.072,400.000 342.833 C 400.000 342.595,399.847 342.400,399.659 342.400 C 399.215 342.400,324.400 267.587,324.400 267.143 C 324.400 266.957,341.455 266.757,362.300 266.700 L 400.200 266.596 362.349 266.498 C 331.366 266.418,324.418 266.496,324.059 266.929 M66.300 333.098 C 29.835 369.561,0.000 399.531,0.000 399.697 C 0.000 400.534,5.237 395.369,66.578 334.023 C 102.863 297.736,132.697 268.136,132.875 268.247 C 133.661 268.732,133.250 303.829,132.446 304.846 C 132.032 305.371,110.702 326.787,85.046 352.438 C 59.391 378.090,38.400 399.293,38.400 399.557 C 38.400 399.821,59.820 378.619,86.000 352.440 L 133.600 304.843 133.600 286.454 C 133.600 269.226,133.508 266.799,132.857 266.800 C 132.716 266.801,102.765 296.634,66.300 333.098 M94.645 361.399 C 59.317 396.718,56.133 400.000,57.200 400.000 C 57.420 400.000,57.600 399.829,57.600 399.620 C 57.600 398.925,132.824 323.998,133.015 324.504 C 133.118 324.777,133.248 341.920,133.304 362.600 L 133.406 400.200 133.403 362.033 C 133.401 333.853,133.281 323.827,132.945 323.715 C 132.694 323.631,115.459 340.589,94.645 361.399 M266.667 323.867 C 266.520 324.013,266.444 341.248,266.498 362.167 L 266.596 400.200 266.697 362.600 C 266.753 341.920,266.887 324.765,266.995 324.478 C 267.112 324.167,282.582 339.346,305.196 361.960 C 326.098 382.863,343.200 399.785,343.200 399.564 C 343.200 399.072,267.777 323.600,267.285 323.600 C 267.092 323.600,266.813 323.720,266.667 323.867 " stroke="none" fill="#e48c94" fill-rule="evenodd"></path><path id="path4" d="M239.799 79.967 C 239.800 150.886,239.869 160.152,240.400 160.297 C 240.843 160.418,240.870 160.369,240.501 160.107 C 240.106 159.827,239.981 143.125,239.900 79.777 L 239.797 -0.200 239.799 79.967 M314.500 47.967 L 266.800 95.804 266.800 113.878 C 266.800 123.819,266.946 132.043,267.124 132.153 C 267.522 132.399,399.458 0.524,399.136 0.202 C 399.009 0.076,369.272 29.607,333.053 65.827 L 267.200 131.682 267.200 113.940 L 267.200 96.199 315.000 48.400 C 358.575 4.826,363.460 -0.144,362.500 0.066 C 362.335 0.102,340.735 21.658,314.500 47.967 M65.838 67.000 L 131.640 132.800 113.919 132.800 L 96.199 132.800 48.400 85.000 C 1.118 37.717,0.000 36.626,0.000 37.800 C 0.000 38.130,0.224 38.400,0.498 38.400 C 0.771 38.400,22.328 59.730,48.402 85.800 L 95.808 133.200 113.837 133.200 C 123.753 133.200,131.985 133.081,132.130 132.936 C 132.447 132.620,1.108 1.200,0.476 1.200 C 0.234 1.200,29.647 30.810,65.838 67.000 M79.777 239.900 C 143.125 239.981,159.827 240.106,160.107 240.501 C 160.369 240.870,160.418 240.843,160.297 240.400 C 160.152 239.869,150.886 239.800,79.967 239.799 L -0.200 239.797 79.777 239.900 M239.785 240.100 C 239.680 240.375,239.641 276.510,239.698 320.400 L 239.802 400.200 239.901 320.101 L 240.000 240.002 320.100 239.900 L 400.200 239.798 320.087 239.699 C 256.292 239.620,239.936 239.702,239.785 240.100 M268.080 267.072 C 267.766 267.197,293.778 293.499,333.582 333.304 C 369.894 369.618,399.704 399.229,399.826 399.107 C 399.948 398.986,370.417 369.257,334.202 333.043 L 268.357 267.200 286.098 267.200 L 303.840 267.200 351.713 315.074 C 378.043 341.404,399.685 362.848,399.807 362.726 C 399.929 362.605,378.493 340.971,352.172 314.653 L 304.315 266.800 286.457 266.832 C 276.636 266.849,268.366 266.957,268.080 267.072 M66.876 333.724 C 30.754 369.846,1.200 399.536,1.200 399.700 C 1.200 399.865,30.810 370.389,67.000 334.199 L 132.800 268.399 132.800 286.100 L 132.800 303.801 85.000 351.600 C 37.717 398.882,36.626 400.000,37.800 400.000 C 38.130 400.000,38.400 399.792,38.400 399.538 C 38.400 399.285,59.391 378.090,85.046 352.438 C 110.702 326.787,132.032 305.371,132.446 304.846 C 133.250 303.829,133.662 268.733,132.876 268.247 C 132.698 268.137,102.998 297.602,66.876 333.724 " stroke="none" fill="#dc4b5b" fill-rule="evenodd"></path></g></svg>